<svg width="100" height="98" viewBox="0 0 100 98" fill="none" xmlns="http://www.w3.org/2000/svg">
<path d="M0 96.9405V0H18.4187V96.9405H0Z" fill="white"/>
<path d="M80.4609 96.9405V0H99.849V96.9405H80.4609Z" fill="white"/>
<path d="M36.9576 26.4851L37.8471 13.0595C37.8471 13.0595 37.8471 10.3941 41.0096 12.5659C41.2071 12.5659 46.4451 20.562 46.4451 20.562C46.4451 20.562 49.064 20.1178 49.4594 20.4633C49.311 20.4139 53.8078 13.5037 53.8078 13.5037C53.8078 13.5037 56.7726 11.9242 57.2668 14.5402C57.3162 14.639 58.2551 23.7704 58.2551 23.7704C58.2551 23.7704 60.058 25.2576 60.3376 25.7113C60.3376 25.6764 65.3707 33.0498 72.7334 31.5691C72.7334 31.5691 75.5005 32.9017 75.5005 37.7883C75.4511 37.7389 74.7682 42.3247 72.3573 44.6631C72.3573 44.698 62.2943 50.0729 62.2943 50.0729C62.2943 50.0729 58.9749 51.1549 57.8218 54.2612C57.787 54.2263 58.6954 74.0157 59.6038 75.7608C59.5339 75.7608 60.6171 87.4529 59.9882 88.4651C59.9182 88.3953 59.9351 94.3042 54.2525 95.8096C54.2278 95.8096 34.0969 98.0283 25.7111 97.4C25.781 97.3302 17.7356 97.5619 12.8436 96.5253C12.8436 96.5253 7.11156 94.3042 5.57973 92.9715C5.4314 92.9715 4.88623 62.3584 4.88623 62.3584C4.88623 62.3584 17.1426 62.4677 21.9358 59.4568C21.8863 59.4568 32.9551 39.1703 32.9551 39.1703C32.9551 39.1703 32.6092 30.6312 36.9576 26.4851Z" fill="white"/>
</svg>
